# Blender v3.1.0 OBJ File: ''
# www.blender.org
mtllib doorA.mtl
o Plane
v -1.000000 -1.000000 0.000000
v 1.000000 -1.000000 0.000000
v -1.000000 1.000000 0.000000
v 1.000000 1.000000 0.000000
v -1.000000 0.666667 0.000000
v -1.000000 0.333333 0.000000
v -1.000000 -0.000000 0.000000
v -1.000000 -0.333333 0.000000
v -1.000000 -0.666667 0.000000
v 1.000000 -0.666667 0.000000
v 1.000000 -0.333333 0.000000
v 1.000000 0.000000 0.000000
v 1.000000 0.333333 0.000000
v 1.000000 0.666667 0.000000
v -0.666667 -1.000000 0.000000
v -0.333333 -1.000000 0.000000
v 0.000000 -1.000000 0.000000
v 0.333333 -1.000000 0.000000
v 0.666667 -1.000000 0.000000
v 0.666667 1.540771 0.000000
v 0.333333 1.684028 0.000000
v -0.000000 1.725521 0.000000
v -0.333333 1.684028 0.000000
v -0.666667 1.540771 0.000000
v 0.666667 -0.666667 0.000000
v 0.333333 -0.666667 0.000000
v -0.000000 -0.666667 0.000000
v -0.333333 -0.666667 0.000000
v -0.666667 -0.666667 0.000000
v 0.666667 -0.333333 0.000000
v 0.333333 -0.333333 0.000000
v -0.000000 -0.333333 0.000000
v -0.333333 -0.333333 0.000000
v -0.666667 -0.333333 0.000000
v 0.666667 0.000000 0.000000
v 0.333333 0.000000 0.000000
v -0.000000 -0.000000 0.000000
v -0.333333 -0.000000 0.000000
v -0.666667 -0.000000 0.000000
v 0.666667 0.575174 0.000000
v 0.333333 0.817014 0.000000
v -0.000000 0.874105 0.000000
v -0.333333 0.817014 0.000000
v -0.666667 0.575174 0.000000
v 0.666667 1.150347 0.000000
v 0.333333 1.306516 0.000000
v -0.000000 1.350695 0.000000
v -0.333333 1.306516 0.000000
v -0.666667 1.150347 0.000000
v -1.000000 -2.161223 0.000000
v 1.000000 -2.161223 0.000000
v -1.000000 -1.161223 0.000000
v -1.000000 -1.494556 0.000000
v -1.000000 -1.827889 0.000000
v 1.000000 -1.827889 0.000000
v 1.000000 -1.494556 0.000000
v 1.000000 -1.161223 0.000000
v -0.666667 -2.161223 0.000000
v -0.333333 -2.161223 0.000000
v 0.000000 -2.161223 0.000000
v 0.333333 -2.161223 0.000000
v 0.666667 -2.161223 0.000000
v 0.666667 -1.827889 0.000000
v 0.333333 -1.827889 0.000000
v -0.000000 -1.827889 0.000000
v -0.333333 -1.827889 0.000000
v -0.666667 -1.827889 0.000000
v 0.666667 -1.494556 0.000000
v 0.333333 -1.494556 0.000000
v -0.000000 -1.494556 0.000000
v -0.333333 -1.494556 0.000000
v -0.666667 -1.494556 0.000000
v 0.666667 -1.161223 0.000000
v 0.333333 -1.161223 0.000000
v -0.000000 -1.161223 0.000000
v -0.333333 -1.161223 0.000000
v -0.666667 -1.161223 0.000000
v -1.000000 0.154359 0.000000
v 1.000000 0.154359 0.000000
v -0.666667 0.266350 0.000000
v -0.333333 0.378340 0.000000
v -0.000000 0.404778 0.000000
v 0.333333 0.378340 0.000000
v 0.666667 0.266350 0.000000
vt 0.833333 0.833333
vt 1.000000 0.833333
vt 1.000000 1.000000
vt 0.833333 1.000000
vt 0.833333 0.000000
vt 1.000000 0.000000
vt 1.000000 0.166667
vt 0.833333 0.166667
vt 1.000000 0.333333
vt 0.833333 0.333333
vt 1.000000 0.500000
vt 0.833333 0.500000
vt 0.833333 0.577179
vt 1.000000 0.577179
vt 1.000000 0.666667
vt 0.833333 0.666667
vt 0.000000 0.666667
vt 0.166667 0.666667
vt 0.166667 0.833333
vt 0.000000 0.833333
vt 0.333333 0.666667
vt 0.333333 0.833333
vt 0.500000 0.666667
vt 0.500000 0.833333
vt 0.666667 0.666667
vt 0.666667 0.833333
vt 0.000000 0.577179
vt 0.166667 0.577179
vt 0.333333 0.577179
vt 0.500000 0.577179
vt 0.666667 0.577179
vt 0.000000 0.333333
vt 0.166667 0.333333
vt 0.166667 0.500000
vt 0.000000 0.500000
vt 0.333333 0.333333
vt 0.333333 0.500000
vt 0.500000 0.333333
vt 0.500000 0.500000
vt 0.666667 0.333333
vt 0.666667 0.500000
vt 0.000000 0.166667
vt 0.166667 0.166667
vt 0.333333 0.166667
vt 0.500000 0.166667
vt 0.666667 0.166667
vt 0.000000 0.000000
vt 0.166667 0.000000
vt 0.333333 0.000000
vt 0.500000 0.000000
vt 0.666667 0.000000
vt 0.166667 1.000000
vt 0.000000 1.000000
vt 0.333333 1.000000
vt 0.500000 1.000000
vt 0.666667 1.000000
vt 0.833333 0.000000
vt 1.000000 0.000000
vt 1.000000 0.166667
vt 0.833333 0.166667
vt 1.000000 0.333333
vt 0.833333 0.333333
vt 1.000000 0.500000
vt 0.833333 0.500000
vt 0.000000 0.333333
vt 0.166667 0.333333
vt 0.166667 0.500000
vt 0.000000 0.500000
vt 0.333333 0.333333
vt 0.333333 0.500000
vt 0.500000 0.333333
vt 0.500000 0.500000
vt 0.666667 0.333333
vt 0.666667 0.500000
vt 0.000000 0.166667
vt 0.166667 0.166667
vt 0.333333 0.166667
vt 0.500000 0.166667
vt 0.666667 0.166667
vt 0.000000 0.000000
vt 0.166667 0.000000
vt 0.333333 0.000000
vt 0.500000 0.000000
vt 0.666667 0.000000
vn 0.0000 0.0000 1.0000
usemtl None
s off
f 45/1/1 14/2/1 4/3/1 20/4/1
f 19/5/1 2/6/1 10/7/1 25/8/1
f 25/8/1 10/7/1 11/9/1 30/10/1
f 30/10/1 11/9/1 12/11/1 35/12/1
f 84/13/1 79/14/1 13/15/1 40/16/1
f 40/16/1 13/15/1 14/2/1 45/1/1
f 6/17/1 44/18/1 49/19/1 5/20/1
f 44/18/1 43/21/1 48/22/1 49/19/1
f 43/21/1 42/23/1 47/24/1 48/22/1
f 42/23/1 41/25/1 46/26/1 47/24/1
f 41/25/1 40/16/1 45/1/1 46/26/1
f 78/27/1 80/28/1 44/18/1 6/17/1
f 80/28/1 81/29/1 43/21/1 44/18/1
f 81/29/1 82/30/1 42/23/1 43/21/1
f 82/30/1 83/31/1 41/25/1 42/23/1
f 83/31/1 84/13/1 40/16/1 41/25/1
f 8/32/1 34/33/1 39/34/1 7/35/1
f 34/33/1 33/36/1 38/37/1 39/34/1
f 33/36/1 32/38/1 37/39/1 38/37/1
f 32/38/1 31/40/1 36/41/1 37/39/1
f 31/40/1 30/10/1 35/12/1 36/41/1
f 9/42/1 29/43/1 34/33/1 8/32/1
f 29/43/1 28/44/1 33/36/1 34/33/1
f 28/44/1 27/45/1 32/38/1 33/36/1
f 27/45/1 26/46/1 31/40/1 32/38/1
f 26/46/1 25/8/1 30/10/1 31/40/1
f 1/47/1 15/48/1 29/43/1 9/42/1
f 15/48/1 16/49/1 28/44/1 29/43/1
f 16/49/1 17/50/1 27/45/1 28/44/1
f 17/50/1 18/51/1 26/46/1 27/45/1
f 18/51/1 19/5/1 25/8/1 26/46/1
f 5/20/1 49/19/1 24/52/1 3/53/1
f 49/19/1 48/22/1 23/54/1 24/52/1
f 48/22/1 47/24/1 22/55/1 23/54/1
f 47/24/1 46/26/1 21/56/1 22/55/1
f 46/26/1 45/1/1 20/4/1 21/56/1
f 62/57/1 51/58/1 55/59/1 63/60/1
f 63/60/1 55/59/1 56/61/1 68/62/1
f 68/62/1 56/61/1 57/63/1 73/64/1
f 53/65/1 72/66/1 77/67/1 52/68/1
f 72/66/1 71/69/1 76/70/1 77/67/1
f 71/69/1 70/71/1 75/72/1 76/70/1
f 70/71/1 69/73/1 74/74/1 75/72/1
f 69/73/1 68/62/1 73/64/1 74/74/1
f 54/75/1 67/76/1 72/66/1 53/65/1
f 67/76/1 66/77/1 71/69/1 72/66/1
f 66/77/1 65/78/1 70/71/1 71/69/1
f 65/78/1 64/79/1 69/73/1 70/71/1
f 64/79/1 63/60/1 68/62/1 69/73/1
f 50/80/1 58/81/1 67/76/1 54/75/1
f 58/81/1 59/82/1 66/77/1 67/76/1
f 59/82/1 60/83/1 65/78/1 66/77/1
f 60/83/1 61/84/1 64/79/1 65/78/1
f 61/84/1 62/57/1 63/60/1 64/79/1
f 52/68/1 77/67/1 15/48/1 1/47/1
f 77/67/1 76/70/1 16/49/1 15/48/1
f 76/70/1 75/72/1 17/50/1 16/49/1
f 75/72/1 74/74/1 18/51/1 17/50/1
f 74/74/1 73/64/1 19/5/1 18/51/1
f 73/64/1 57/63/1 2/6/1 19/5/1
f 36/41/1 35/12/1 84/13/1 83/31/1
f 37/39/1 36/41/1 83/31/1 82/30/1
f 38/37/1 37/39/1 82/30/1 81/29/1
f 39/34/1 38/37/1 81/29/1 80/28/1
f 7/35/1 39/34/1 80/28/1 78/27/1
f 35/12/1 12/11/1 79/14/1 84/13/1
