# Blender v3.1.0 OBJ File: ''
# www.blender.org
mtllib lampB.mtl
o Plane
v -0.793669 -0.000000 1.969065
v -0.245257 -0.754824 1.969065
v 0.642091 -0.466507 1.969065
v 0.642091 0.466507 1.969065
v -0.245257 0.754824 1.969065
v 1.637098 1.189421 1.203757
v 1.637098 -1.189421 1.203757
v -0.000000 0.000000 2.117904
v -0.625316 -1.924524 1.203757
v -2.023564 -0.000000 1.203757
v -0.625316 1.924524 1.203757
v -0.644832 -0.468498 1.950007
v 0.246304 -0.758045 1.950007
v 0.797056 0.000000 1.950007
v 0.246304 0.758046 1.950007
v -0.644832 0.468498 1.950007
v -0.357463 -1.100157 1.500868
v -1.156773 -0.000000 1.500868
v 0.935849 0.679934 1.500868
v 0.935849 -0.679934 1.500868
v -1.621698 1.178233 1.203757
v 0.359491 -0.261185 2.117904
v 0.619433 1.906421 1.203757
v 2.004529 0.000000 1.203757
v 0.619434 -1.906420 1.203757
v -1.621698 -1.178233 1.203757
v 0.359491 0.261185 2.117904
v -0.444355 -0.000000 2.117904
v -0.137313 -0.422607 2.117904
v -0.137313 0.422607 2.117904
v -0.357463 1.100157 1.500868
v 0.525607 0.000000 2.117891
v -0.425225 -0.308944 2.117891
v 0.162421 0.499882 2.117891
v 0.162421 -0.499882 2.117891
v -0.425225 0.308944 2.117891
v 1.147249 0.000000 1.494491
v -0.928144 -0.674336 1.494492
v 0.354519 1.091098 1.494492
v 0.354519 -1.091098 1.494491
v -0.928144 0.674336 1.494491
v -0.475230 -2.754285 1.203757
v -0.475230 2.754285 1.203757
v 0.470759 2.728376 1.203757
v 0.470759 -2.728376 1.203757
v -1.909375 1.386990 0.401471
v -2.382443 -0.000000 0.401471
v 1.926808 -1.400161 0.401471
v 1.926808 1.400161 0.401471
v 2.359341 0.000000 0.401471
v -1.909375 -1.386990 0.401471
v -1.909375 1.386990 -0.567589
v -2.382443 -0.000000 -0.567589
v 1.926808 -1.400161 -0.567589
v 1.926808 1.400161 -0.567589
v 2.359341 0.000000 -0.567589
v -1.909375 -1.386990 -0.567589
v 1.637098 1.189421 -1.591748
v 1.637098 -1.189421 -1.591748
v -0.625316 -1.924524 -1.591748
v -2.023564 -0.000000 -1.591748
v -0.625316 1.924524 -1.591748
v -0.357463 -1.100157 -1.888859
v -1.156773 -0.000000 -1.888859
v 0.935849 0.679934 -1.888859
v 0.935849 -0.679934 -1.888859
v -1.621698 1.178233 -1.591748
v 0.619433 1.906421 -1.591748
v 2.004529 0.000000 -1.591748
v 0.619434 -1.906420 -1.591748
v -1.621698 -1.178233 -1.591748
v -0.357463 1.100157 -1.888859
v 1.147249 0.000000 -1.882482
v -0.928144 -0.674336 -1.882483
v 0.354519 1.091098 -1.882483
v 0.354519 -1.091098 -1.882482
v -0.928144 0.674336 -1.882482
vt 0.000000 0.000000
vt 0.000000 0.000000
vt 0.000000 0.000000
vt 0.000000 0.000000
vt 0.000000 0.000000
vt 0.000000 0.000000
vt 0.000000 0.000000
vt 0.000000 0.000000
vt 0.000000 0.000000
vt 0.000000 0.000000
vt 0.000000 0.000000
vt 0.000000 0.000000
vt 0.000000 0.000000
vt 0.000000 0.000000
vt 0.000000 0.000000
vt 0.000000 0.000000
vt 0.000000 0.000000
vt 0.000000 0.000000
vt 0.000000 0.000000
vt 0.000000 0.000000
vt 0.000000 0.000000
vt 0.000000 0.000000
vt 0.000000 0.000000
vt 0.000000 0.000000
vt 0.000000 0.000000
vt 0.000000 0.000000
vt 0.000000 0.000000
vt 0.000000 0.000000
vt 0.000000 0.000000
vt 0.000000 0.000000
vt 0.000000 0.000000
vt 0.000000 0.000000
vt 0.000000 0.000000
vt 0.000000 0.000000
vt 0.000000 0.000000
vt 0.000000 0.000000
vt 0.000000 0.000000
vt 0.000000 0.000000
vt 0.000000 0.000000
vt 0.000000 0.000000
vt 0.000000 0.000000
vt 0.000000 0.000000
vt 0.000000 0.000000
vt 0.000000 0.000000
vt 0.000000 0.000000
vt 0.000000 0.000000
vt 0.000000 0.000000
vt 0.000000 0.000000
vt 0.000000 0.000000
vt 0.000000 0.000000
vt 0.000000 0.000000
vt 0.000000 0.000000
vt 0.000000 0.000000
vt 0.000000 0.000000
vt 0.000000 0.000000
vt 0.000000 0.000000
vt 0.000000 0.000000
vt 0.000000 0.000000
vt 0.000000 0.000000
vt 0.000000 0.000000
vt 0.000000 0.000000
vt 0.000000 0.000000
vt 0.000000 0.000000
vt 0.000000 0.000000
vt 0.000000 0.000000
vt 0.000000 0.000000
vt 0.000000 0.000000
vt 0.000000 0.000000
vt 0.000000 0.000000
vt 0.000000 0.000000
vt 0.000000 0.000000
vt 0.000000 0.000000
vt 0.000000 0.000000
vt 0.000000 0.000000
vt 0.000000 0.000000
vt 0.000000 0.000000
vt 0.000000 0.000000
vn 0.5344 0.3883 0.7508
vn 0.1982 0.1440 0.9695
vn 0.3055 0.0000 0.9522
vn 0.6648 0.0000 0.7470
vn 0.5344 -0.3883 0.7508
vn 0.1982 -0.1440 0.9695
vn -0.0000 -0.0000 1.0000
vn -0.2041 -0.6282 0.7508
vn -0.0757 -0.2330 0.9695
vn -0.2472 -0.1796 0.9522
vn -0.5378 -0.3908 0.7470
vn -0.6606 -0.0000 0.7508
vn -0.2450 -0.0000 0.9695
vn -0.2041 0.6282 0.7508
vn -0.0757 0.2330 0.9695
vn 0.0944 0.2906 0.9522
vn 0.2054 0.6323 0.7470
vn 0.0944 -0.2906 0.9522
vn 0.2054 -0.6323 0.7470
vn -0.2472 0.1796 0.9522
vn -0.5378 0.3908 0.7470
vn 0.4352 -0.3162 0.8430
vn 0.5446 0.0000 0.8387
vn 0.4352 0.3162 0.8430
vn 0.7135 0.0000 0.7007
vn 0.5603 0.2438 0.7916
vn 0.5603 -0.2438 0.7916
vn -0.5380 0.0000 0.8430
vn -0.4406 -0.3201 0.8387
vn -0.1662 -0.5117 0.8430
vn -0.5525 -0.2553 0.7934
vn -0.0642 -0.1977 0.9782
vn -0.7138 0.0000 0.7004
vn 0.1683 0.5179 0.8387
vn -0.1662 0.5117 0.8430
vn 0.0661 0.2035 0.9768
vn -0.0642 0.1977 0.9782
vn 0.1683 -0.5179 0.8387
vn 0.0661 -0.2035 0.9768
vn -0.4406 0.3201 0.8387
vn -0.5525 0.2553 0.7934
vn -0.9290 0.3169 0.1910
vn -0.9797 0.0000 0.2005
vn 0.9799 0.0000 0.1992
vn 0.9381 0.2898 0.1898
vn -0.9290 -0.3169 0.1910
vn 0.9381 -0.2898 0.1898
vn 0.9869 0.0000 -0.1611
vn 0.9441 0.2917 -0.1535
vn -0.9867 -0.0000 -0.1623
vn -0.9351 -0.3189 -0.1544
vn 0.9441 -0.2917 -0.1535
vn -0.9351 0.3189 -0.1544
vn 0.3249 0.0000 -0.9458
vn 0.2593 0.1884 -0.9472
vn 0.5801 0.2517 -0.7747
vn 0.7433 0.0000 -0.6690
vn 0.2593 -0.1884 -0.9472
vn 0.5801 -0.2517 -0.7747
vn -0.2628 -0.1910 -0.9458
vn -0.0991 -0.3049 -0.9472
vn -0.5720 -0.2635 -0.7767
vn -0.3206 0.0000 -0.9472
vn -0.7439 0.0000 -0.6683
vn 0.1004 0.3090 -0.9458
vn -0.0991 0.3049 -0.9472
vn 0.1004 -0.3090 -0.9458
vn -0.2628 0.1910 -0.9458
vn -0.5720 0.2635 -0.7767
usemtl None
s 1
f 4/1/1 27/2/2 32/3/3 14/4/4
f 3/5/5 14/4/4 32/3/3 22/6/6
f 8/7/7 22/6/6 32/3/3 27/2/2
f 2/8/8 29/9/9 33/10/10 12/11/11
f 1/12/12 12/11/11 33/10/10 28/13/13
f 8/7/7 28/13/13 33/10/10 29/9/9
f 5/14/14 30/15/15 34/16/16 15/17/17
f 4/1/1 15/17/17 34/16/16 27/2/2
f 8/7/7 27/2/2 34/16/16 30/15/15
f 3/5/5 22/6/6 35/18/18 13/19/19
f 2/8/8 13/19/19 35/18/18 29/9/9
f 8/7/7 29/9/9 35/18/18 22/6/6
f 1/12/12 28/13/13 36/20/20 16/21/21
f 5/14/14 16/21/21 36/20/20 30/15/15
f 8/7/7 30/15/15 36/20/20 28/13/13
f 3/5/5 20/22/22 37/23/23 14/4/4
f 14/4/4 37/23/23 19/24/24 4/1/1
f 37/23/23 24/25/25 6/26/26 19/24/24
f 20/22/22 7/27/27 24/25/25 37/23/23
f 1/12/12 18/28/28 38/29/29 12/11/11
f 12/11/11 38/29/29 17/30/30 2/8/8
f 38/29/29 26/31/31 9/32/32 17/30/30
f 18/28/28 10/33/33 26/31/31 38/29/29
f 4/1/1 19/24/24 39/34/34 15/17/17
f 15/17/17 39/34/34 31/35/35 5/14/14
f 39/34/34 23/36/36 11/37/37 31/35/35
f 19/24/24 6/26/26 23/36/36 39/34/34
f 2/8/8 17/30/30 40/38/38 13/19/19
f 13/19/19 40/38/38 20/22/22 3/5/5
f 40/38/38 25/39/39 7/27/27 20/22/22
f 17/30/30 9/32/32 25/39/39 40/38/38
f 5/14/14 31/35/35 41/40/40 16/21/21
f 16/21/21 41/40/40 18/28/28 1/12/12
f 41/40/40 21/41/41 10/33/33 18/28/28
f 31/35/35 11/37/37 21/41/41 41/40/40
f 9/32/32 42/42/7 45/43/7 25/39/39
f 23/36/36 44/44/7 43/45/7 11/37/37
f 21/41/41 46/46/42 47/47/43 10/33/33
f 24/25/25 50/48/44 49/49/45 6/26/26
f 10/33/33 47/47/43 51/50/46 26/31/31
f 7/27/27 48/51/47 50/48/44 24/25/25
f 50/48/44 56/52/48 55/53/49 49/49/45
f 47/47/43 53/54/50 57/55/51 51/50/46
f 48/51/47 54/56/52 56/52/48 50/48/44
f 46/46/42 52/57/53 53/54/50 47/47/43
f 73/58/54 65/59/55 58/60/56 69/61/57
f 66/62/58 73/58/54 69/61/57 59/63/59
f 74/64/60 63/65/61 60/66/61 71/67/62
f 64/68/63 74/64/60 71/67/62 61/69/64
f 75/70/65 72/71/66 62/72/66 68/73/65
f 65/59/55 75/70/65 68/73/65 58/60/56
f 76/74/67 66/62/58 59/63/59 70/75/67
f 63/65/61 76/74/67 70/75/67 60/66/61
f 77/76/68 64/68/63 61/69/64 67/77/69
f 72/71/66 77/76/68 67/77/69 62/72/66
f 52/57/53 67/77/69 61/69/64 53/54/50
f 53/54/50 61/69/64 71/67/62 57/55/51
f 56/52/48 69/61/57 58/60/56 55/53/49
f 54/56/52 59/63/59 69/61/57 56/52/48
