# Blender v3.1.0 OBJ File: ''
# www.blender.org
mtllib lampD.mtl
o Plane.005_Plane.003
v 0.000000 1.415181 0.000000
v 0.000000 2.289015 0.000000
v 0.000000 -1.415181 0.000000
v 0.000000 -2.289015 0.000000
v -0.541566 1.307457 0.156250
v -0.875968 2.114774 0.156250
v 0.541566 -1.307457 0.156250
v 0.875968 -2.114774 0.156250
v -1.000684 1.000684 0.312500
v -1.618578 1.618578 0.312500
v 1.000684 -1.000684 0.312500
v 1.618578 -1.618578 0.312500
v -1.307457 0.541566 0.468750
v -2.114774 0.875968 0.468750
v 1.307457 -0.541566 0.468750
v 2.114774 -0.875968 0.468750
v -1.415181 -0.000000 0.625000
v -2.289015 -0.000000 0.625000
v 1.415181 0.000000 0.625000
v 2.289015 0.000000 0.625000
v -1.307457 -0.541566 0.781250
v -2.114774 -0.875968 0.781250
v 1.307457 0.541566 0.781250
v 2.114774 0.875968 0.781250
v -1.000684 -1.000684 0.937500
v -1.618578 -1.618578 0.937500
v 1.000684 1.000684 0.937500
v 1.618578 1.618578 0.937500
v -0.541566 -1.307457 1.093750
v -0.875968 -2.114774 1.093750
v 0.541566 1.307457 1.093750
v 0.875968 2.114774 1.093750
v 0.000000 -1.415181 1.250000
v 0.000000 -2.289015 1.250000
v -0.000000 1.415181 1.250000
v -0.000000 2.289015 1.250000
v 0.541566 -1.307457 1.406250
v 0.875968 -2.114774 1.406250
v -0.541566 1.307457 1.406250
v -0.875968 2.114774 1.406250
v 1.000684 -1.000684 1.562500
v 1.618578 -1.618578 1.562500
v -1.000684 1.000684 1.562500
v -1.618578 1.618578 1.562500
v 1.307457 -0.541566 1.718750
v 2.114774 -0.875967 1.718750
v -1.307457 0.541566 1.718750
v -2.114774 0.875967 1.718750
v 1.415181 0.000000 1.875000
v 2.289015 0.000000 1.875000
v -1.415181 -0.000000 1.875000
v -2.289015 -0.000000 1.875000
v 1.307457 0.541567 2.031250
v 2.114774 0.875968 2.031250
v -1.307457 -0.541567 2.031250
v -2.114774 -0.875968 2.031250
v 1.000684 1.000684 2.187500
v 1.618577 1.618578 2.187500
v -1.000684 -1.000684 2.187500
v -1.618577 -1.618578 2.187500
v 0.541566 1.307457 2.343750
v 0.875968 2.114774 2.343750
v -0.541566 -1.307457 2.343750
v -0.875968 -2.114774 2.343750
v -0.000000 1.415181 2.500000
v -0.000000 2.289015 2.500000
v 0.000000 -1.415181 2.500000
v 0.000000 -2.289015 2.500000
v -0.541567 1.307457 2.656250
v -0.875969 2.114774 2.656250
v 0.541567 -1.307457 2.656250
v 0.875969 -2.114774 2.656250
v -1.000684 1.000684 2.812500
v -1.618578 1.618578 2.812500
v 1.000684 -1.000684 2.812500
v 1.618578 -1.618578 2.812500
v -1.307457 0.541566 2.968750
v -2.114774 0.875968 2.968750
v 1.307457 -0.541566 2.968750
v 2.114774 -0.875968 2.968750
v -1.415181 -0.000000 3.125000
v -2.289015 -0.000001 3.125000
v 1.415181 0.000000 3.125000
v 2.289015 0.000001 3.125000
v -1.307457 -0.541567 3.281250
v -2.114774 -0.875969 3.281250
v 1.307457 0.541567 3.281250
v 2.114774 0.875969 3.281250
v -1.000684 -1.000685 3.437500
v -1.618577 -1.618579 3.437500
v 1.000684 1.000685 3.437500
v 1.618577 1.618579 3.437500
v -0.541567 -1.307457 3.593750
v -0.875968 -2.114774 3.593750
v 0.541567 1.307457 3.593750
v 0.875968 2.114774 3.593750
v 0.000000 -1.415181 3.750000
v 0.000000 -2.289015 3.750000
v -0.000000 1.415181 3.750000
v -0.000000 2.289015 3.750000
v 0.541567 -1.307457 3.906250
v 0.875968 -2.114774 3.906250
v -0.541567 1.307457 3.906250
v -0.875968 2.114774 3.906250
v 1.000684 -1.000684 4.062500
v 1.618578 -1.618577 4.062500
v -1.000684 1.000684 4.062500
v -1.618578 1.618577 4.062500
v 1.307457 -0.541566 4.218750
v 2.114774 -0.875967 4.218750
v -1.307457 0.541566 4.218750
v -2.114774 0.875967 4.218750
v 1.415181 0.000001 4.375000
v 2.289015 0.000002 4.375000
v -1.415181 -0.000001 4.375000
v -2.289015 -0.000002 4.375000
v 1.307457 0.541566 4.531250
v 2.114774 0.875968 4.531250
v -1.307457 -0.541566 4.531250
v -2.114774 -0.875968 4.531250
v 1.000684 1.000684 4.687500
v 1.618578 1.618578 4.687500
v -1.000684 -1.000684 4.687500
v -1.618578 -1.618578 4.687500
v 0.541566 1.307457 4.843750
v 0.875968 2.114774 4.843750
v -0.541566 -1.307457 4.843750
v -0.875968 -2.114774 4.843750
v 0.000000 1.415181 -2.792401
v 0.698883 1.415181 -2.605135
v 1.210502 1.415181 -2.093517
v 1.397767 1.415181 -1.394634
v 1.210502 1.415181 -0.695750
v 0.698884 1.415181 -0.184132
v 0.000000 2.289015 -2.792401
v 0.698883 2.289015 -2.605135
v 1.210502 2.289015 -2.093517
v 1.397767 2.289015 -1.394634
v 1.210502 2.289015 -0.695750
v 0.698884 2.289015 -0.184132
v -0.698883 1.415181 -2.605130
v -0.698883 2.289015 -2.605130
v 0.000000 0.724012 -2.792401
v 0.698883 0.724012 -2.605135
v -0.698883 0.724012 -2.605130
v 0.698883 0.000000 -2.605135
v 0.000000 -1.415181 -2.792401
v -0.698883 -1.415181 -2.605135
v -1.210501 -1.415182 -2.093517
v -1.397766 -1.415182 -1.394634
v -1.210501 -1.415182 -0.695750
v -0.698883 -1.415181 -0.184132
v 0.000001 -2.289015 -2.792401
v -0.698883 -2.289015 -2.605135
v -1.210501 -2.289015 -2.093517
v -1.397766 -2.289015 -1.394634
v -1.210501 -2.289015 -0.695750
v -0.698883 -2.289015 -0.184132
v 0.698883 -1.415181 -2.605130
v 0.698884 -2.289015 -2.605130
v 0.000000 -0.724012 -2.792401
v -0.698883 -0.724012 -2.605135
v 0.698883 -0.724012 -2.605130
v -0.000000 -0.000000 -2.792401
v -0.698883 -0.000000 -2.605135
v -0.000000 1.415181 4.996867
v 0.000001 1.415181 7.792401
v -0.698883 1.415181 7.605135
v -1.210501 1.415181 7.093517
v -1.397766 1.415181 6.394634
v -1.210501 1.415181 5.695751
v -0.698884 1.415181 5.184132
v -0.000000 2.289015 4.996867
v 0.000001 2.289015 7.792401
v -0.698883 2.289015 7.605135
v -1.210501 2.289015 7.093517
v -1.397766 2.289015 6.394634
v -1.210501 2.289015 5.695751
v -0.698884 2.289015 5.184132
v 0.698884 1.415181 7.605130
v 0.698884 2.289015 7.605130
v 0.000001 0.724012 7.792401
v -0.698883 0.724012 7.605135
v 0.698884 0.724012 7.605130
v -0.000001 -1.415181 4.996867
v 0.000000 -1.415181 7.792401
v 0.698884 -1.415181 7.605135
v 1.210502 -1.415182 7.093516
v 1.397767 -1.415182 6.394633
v 1.210501 -1.415182 5.695750
v 0.698883 -1.415181 5.184132
v -0.000001 -2.289015 4.996867
v 0.000000 -2.289015 7.792401
v 0.698883 -2.289015 7.605135
v 1.210501 -2.289015 7.093516
v 1.397766 -2.289015 6.394633
v 1.210501 -2.289015 5.695750
v 0.698883 -2.289015 5.184132
v -0.698883 -1.415181 7.605130
v -0.698883 -2.289015 7.605130
v 0.000001 -0.724012 7.792401
v 0.698884 -0.724012 7.605135
v -0.698882 -0.724012 7.605130
v 0.000001 -0.000000 7.792401
v 0.698884 -0.000000 7.605135
v -0.698882 0.000000 7.605130
vt 0.000000 0.000000
vt 0.000000 0.000000
vt 0.062500 0.000000
vt 0.062500 0.000000
vt 0.125000 0.000000
vt 0.125000 0.000000
vt 0.187500 0.000000
vt 0.187500 0.000000
vt 0.250000 0.000000
vt 0.250000 0.000000
vt 0.312500 0.000000
vt 0.312500 0.000000
vt 0.375000 0.000000
vt 0.375000 0.000000
vt 0.437500 0.000000
vt 0.437500 0.000000
vt 0.500000 0.000000
vt 0.500000 0.000000
vt 0.562500 0.000000
vt 0.562500 0.000000
vt 0.625000 0.000000
vt 0.625000 0.000000
vt 0.687500 0.000000
vt 0.687500 0.000000
vt 0.750000 0.000000
vt 0.750000 0.000000
vt 0.812500 0.000000
vt 0.812500 0.000000
vt 0.875000 0.000000
vt 0.875000 0.000000
vt 0.937500 0.000000
vt 0.937500 0.000000
vt 1.000000 0.000000
vt 1.000000 0.000000
vt 1.062500 0.000000
vt 1.062500 0.000000
vt 1.125000 0.000000
vt 1.125000 0.000000
vt 1.187500 0.000000
vt 1.187500 0.000000
vt 1.250000 0.000000
vt 1.250000 0.000000
vt 1.312500 0.000000
vt 1.312500 0.000000
vt 1.375000 0.000000
vt 1.375000 0.000000
vt 1.437500 0.000000
vt 1.437500 0.000000
vt 1.500000 0.000000
vt 1.500000 0.000000
vt 1.562500 0.000000
vt 1.562500 0.000000
vt 1.625000 0.000000
vt 1.625000 0.000000
vt 1.687500 0.000000
vt 1.687500 0.000000
vt 1.750000 0.000000
vt 1.750000 0.000000
vt 1.812500 0.000000
vt 1.812500 0.000000
vt 1.875000 0.000000
vt 1.875000 0.000000
vt 1.937500 0.000000
vt 1.937500 0.000000
vt 2.000000 0.000000
vt 2.000000 0.000000
vt 0.000000 0.000000
vt 0.000000 0.000000
vt 0.062500 0.000000
vt 0.062500 0.000000
vt 0.125000 0.000000
vt 0.125000 0.000000
vt 0.187500 0.000000
vt 0.187500 0.000000
vt 0.250000 0.000000
vt 0.250000 0.000000
vt 0.312500 0.000000
vt 0.312500 0.000000
vt 0.375000 0.000000
vt 0.375000 0.000000
vt 0.437500 0.000000
vt 0.437500 0.000000
vt 0.500000 0.000000
vt 0.500000 0.000000
vt 0.562500 0.000000
vt 0.562500 0.000000
vt 0.625000 0.000000
vt 0.625000 0.000000
vt 0.687500 0.000000
vt 0.687500 0.000000
vt 0.750000 0.000000
vt 0.750000 0.000000
vt 0.812500 0.000000
vt 0.812500 0.000000
vt 0.875000 0.000000
vt 0.875000 0.000000
vt 0.937500 0.000000
vt 0.937500 0.000000
vt 1.000000 0.000000
vt 1.000000 0.000000
vt 1.062500 0.000000
vt 1.062500 0.000000
vt 1.125000 0.000000
vt 1.125000 0.000000
vt 1.187500 0.000000
vt 1.187500 0.000000
vt 1.250000 0.000000
vt 1.250000 0.000000
vt 1.312500 0.000000
vt 1.312500 0.000000
vt 1.375000 0.000000
vt 1.375000 0.000000
vt 1.437500 0.000000
vt 1.437500 0.000000
vt 1.500000 0.000000
vt 1.500000 0.000000
vt 1.562500 0.000000
vt 1.562500 0.000000
vt 1.625000 0.000000
vt 1.625000 0.000000
vt 1.687500 0.000000
vt 1.687500 0.000000
vt 1.750000 0.000000
vt 1.750000 0.000000
vt 1.812500 0.000000
vt 1.812500 0.000000
vt 1.875000 0.000000
vt 1.875000 0.000000
vt 1.937500 0.000000
vt 1.937500 0.000000
vt 2.000000 0.000000
vt 2.000000 0.000000
vt 0.000000 0.000000
vt 0.000000 0.000000
vt 0.000000 0.000000
vt 0.000000 0.000000
vt 0.000000 0.000000
vt 0.000000 0.000000
vt 0.000000 0.000000
vt 0.000000 0.000000
vt 0.000000 0.000000
vt 0.000000 0.000000
vt 0.000000 0.000000
vt 0.000000 0.000000
vt 0.000000 0.000000
vt 0.000000 0.000000
vt 0.000000 0.000000
vt 0.000000 0.000000
vt 0.000000 0.000000
vt 0.000000 0.000000
vt 0.000000 0.000000
vt 0.000000 0.000000
vt 0.000000 0.000000
vt 0.000000 0.000000
vt 0.000000 0.000000
vt 0.000000 0.000000
vt 0.000000 0.000000
vt 0.000000 0.000000
vt 0.000000 0.000000
vt 0.000000 0.000000
vt 0.000000 0.000000
vt 0.000000 0.000000
vt 0.000000 0.000000
vt 0.000000 0.000000
vt 0.000000 0.000000
vt 0.000000 0.000000
vt 0.000000 0.000000
vt 0.000000 0.000000
vt 0.000000 0.000000
vt 0.000000 0.000000
vt 0.000000 0.000000
vt 0.000000 0.000000
vt 0.000000 0.000000
vt 0.000000 0.000000
vt 0.000000 0.000000
vt 0.000000 0.000000
vt 0.000000 0.000000
vt 0.000000 0.000000
vt 0.000000 0.000000
vt 0.000000 0.000000
vt 0.000000 0.000000
vt 0.000000 0.000000
vt 0.000000 0.000000
vt 0.000000 0.000000
vt 0.000000 0.000000
vt 0.000000 0.000000
vt 0.000000 0.000000
vt 0.000000 0.000000
vt 0.000000 0.000000
vt 0.000000 0.000000
vt 0.000000 0.000000
vt 0.000000 0.000000
vt 0.000000 0.000000
vt 0.000000 0.000000
vt 0.000000 0.000000
vt 0.000000 0.000000
vt 0.000000 0.000000
vt 0.000000 0.000000
vt 0.000000 0.000000
vt 0.000000 0.000000
vt 0.000000 0.000000
vt 0.000000 0.000000
vt 0.000000 0.000000
vt 0.000000 0.000000
vt 0.000000 0.000000
vt 0.000000 0.000000
vt 0.000000 0.000000
vt 0.000000 0.000000
vt 0.000000 0.000000
vt 0.000000 0.000000
vn 0.2298 0.0218 0.9730
vn 0.2327 0.0193 0.9724
vn 0.1917 0.0794 0.9782
vn 0.1467 0.1467 0.9782
vn 0.0794 0.1917 0.9782
vn 0.0000 0.2074 0.9782
vn -0.0794 0.1917 0.9782
vn -0.1467 0.1467 0.9782
vn -0.1917 0.0794 0.9782
vn -0.2074 -0.0000 0.9782
vn -0.1917 -0.0794 0.9782
vn -0.1467 -0.1467 0.9782
vn -0.0794 -0.1917 0.9782
vn 0.0000 -0.2074 0.9782
vn 0.0794 -0.1917 0.9782
vn 0.1467 -0.1467 0.9782
vn 0.1917 -0.0794 0.9782
vn 0.2074 0.0000 0.9782
vn 0.1897 -0.0790 0.9787
vn 0.2330 -0.0189 0.9723
vn 0.2296 -0.0214 0.9730
vn -0.2298 -0.0218 0.9730
vn -0.2327 -0.0193 0.9724
vn -0.1897 0.0790 0.9787
vn -0.2330 0.0189 0.9723
vn -0.2296 0.0214 0.9730
vn 0.4982 0.0000 0.8671
vn 0.8660 0.0000 0.5000
vn 1.0000 0.0000 0.0000
vn 0.8660 0.0000 -0.5000
vn 0.5000 0.0000 -0.8660
vn 0.4210 0.0000 -0.9071
vn -0.0000 0.0000 -1.0000
vn -0.2588 0.0000 -0.9659
vn 0.2588 -0.0000 -0.9659
vn -0.4982 -0.0000 0.8671
vn -0.8660 -0.0000 0.5000
vn -1.0000 -0.0000 0.0000
vn -0.8660 -0.0000 -0.5000
vn -0.5000 -0.0000 -0.8660
vn -0.4210 -0.0000 -0.9071
vn 0.5000 0.0000 0.8660
vn -0.5000 0.0000 0.8660
usemtl None
s 1
f 1/1/1 2/2/2 6/3/3 5/4/3
f 5/4/3 6/3/3 10/5/4 9/6/4
f 9/6/4 10/5/4 14/7/5 13/8/5
f 13/8/5 14/7/5 18/9/6 17/10/6
f 17/10/6 18/9/6 22/11/7 21/12/7
f 21/12/7 22/11/7 26/13/8 25/14/8
f 25/14/8 26/13/8 30/15/9 29/16/9
f 29/16/9 30/15/9 34/17/10 33/18/10
f 33/18/10 34/17/10 38/19/11 37/20/11
f 37/20/11 38/19/11 42/21/12 41/22/12
f 41/22/12 42/21/12 46/23/13 45/24/13
f 45/24/13 46/23/13 50/25/14 49/26/14
f 49/26/14 50/25/14 54/27/15 53/28/15
f 53/28/15 54/27/15 58/29/16 57/30/16
f 57/30/16 58/29/16 62/31/17 61/32/17
f 61/32/17 62/31/17 66/33/18 65/34/18
f 65/34/18 66/33/18 70/35/3 69/36/3
f 69/36/3 70/35/3 74/37/4 73/38/4
f 73/38/4 74/37/4 78/39/5 77/40/5
f 77/40/5 78/39/5 82/41/6 81/42/6
f 81/42/6 82/41/6 86/43/7 85/44/7
f 85/44/7 86/43/7 90/45/8 89/46/8
f 89/46/8 90/45/8 94/47/9 93/48/9
f 93/48/9 94/47/9 98/49/10 97/50/10
f 97/50/10 98/49/10 102/51/11 101/52/11
f 101/52/11 102/51/11 106/53/12 105/54/12
f 105/54/12 106/53/12 110/55/13 109/56/13
f 109/56/13 110/55/13 114/57/14 113/58/14
f 113/58/14 114/57/14 118/59/15 117/60/15
f 117/60/15 118/59/15 122/61/16 121/62/16
f 121/62/16 122/61/16 126/63/19 125/64/19
f 125/64/19 126/63/19 173/65/20 166/66/21
f 3/67/22 4/68/23 8/69/11 7/70/11
f 7/70/11 8/69/11 12/71/12 11/72/12
f 11/72/12 12/71/12 16/73/13 15/74/13
f 15/74/13 16/73/13 20/75/14 19/76/14
f 19/76/14 20/75/14 24/77/15 23/78/15
f 23/78/15 24/77/15 28/79/16 27/80/16
f 27/80/16 28/79/16 32/81/17 31/82/17
f 31/82/17 32/81/17 36/83/18 35/84/18
f 35/84/18 36/83/18 40/85/3 39/86/3
f 39/86/3 40/85/3 44/87/4 43/88/4
f 43/88/4 44/87/4 48/89/5 47/90/5
f 47/90/5 48/89/5 52/91/6 51/92/6
f 51/92/6 52/91/6 56/93/7 55/94/7
f 55/94/7 56/93/7 60/95/8 59/96/8
f 59/96/8 60/95/8 64/97/9 63/98/9
f 63/98/9 64/97/9 68/99/10 67/100/10
f 67/100/10 68/99/10 72/101/11 71/102/11
f 71/102/11 72/101/11 76/103/12 75/104/12
f 75/104/12 76/103/12 80/105/13 79/106/13
f 79/106/13 80/105/13 84/107/14 83/108/14
f 83/108/14 84/107/14 88/109/15 87/110/15
f 87/110/15 88/109/15 92/111/16 91/112/16
f 91/112/16 92/111/16 96/113/17 95/114/17
f 95/114/17 96/113/17 100/115/18 99/116/18
f 99/116/18 100/115/18 104/117/3 103/118/3
f 103/118/3 104/117/3 108/119/4 107/120/4
f 107/120/4 108/119/4 112/121/5 111/122/5
f 111/122/5 112/121/5 116/123/6 115/124/6
f 115/124/6 116/123/6 120/125/7 119/126/7
f 119/126/7 120/125/7 124/127/8 123/128/8
f 123/128/8 124/127/8 128/129/24 127/130/24
f 127/130/24 128/129/24 192/131/25 185/132/26
f 140/133/27 2/2/2 1/1/1 134/134/27
f 139/135/28 140/133/27 134/134/27 133/136/28
f 138/137/29 139/135/28 133/136/28 132/138/29
f 137/139/30 138/137/29 132/138/29 131/140/30
f 136/141/31 137/139/30 131/140/30 130/142/32
f 135/143/33 136/141/31 130/142/32 129/144/33
f 135/143/33 129/144/33 141/145/34 142/146/34
f 141/145/34 129/144/33 143/147/33 145/148/34
f 129/144/33 130/142/32 144/149/35 143/147/33
f 145/148/34 143/147/33 164/150/33 165/151/34
f 143/147/33 144/149/35 146/152/35 164/150/33
f 158/153/36 4/68/23 3/67/22 152/154/36
f 157/155/37 158/153/36 152/154/36 151/156/37
f 156/157/38 157/155/37 151/156/37 150/158/38
f 155/159/39 156/157/38 150/158/38 149/160/39
f 154/161/40 155/159/39 149/160/39 148/162/41
f 153/163/33 154/161/40 148/162/41 147/164/33
f 153/163/33 147/164/33 159/165/35 160/166/35
f 159/165/35 147/164/33 161/167/33 163/168/35
f 147/164/33 148/162/41 162/169/34 161/167/33
f 163/168/35 161/167/33 164/150/33 146/152/35
f 161/167/33 162/169/34 165/151/34 164/150/33
f 179/170/42 172/171/42 166/172/21 173/173/20
f 178/174/28 171/175/28 172/171/42 179/170/42
f 177/176/29 170/177/29 171/175/28 178/174/28
f 176/178/30 169/179/30 170/177/29 177/176/29
f 175/180/31 168/181/32 169/179/30 176/178/30
f 174/182/33 167/183/33 168/181/32 175/180/31
f 174/182/33 181/184/34 180/185/34 167/183/33
f 180/185/34 184/186/34 182/187/33 167/183/33
f 167/183/33 182/187/33 183/188/35 168/181/32
f 184/186/34 205/189/34 204/190/33 182/187/33
f 182/187/33 204/190/33 206/191/35 183/188/35
f 198/192/43 191/193/43 185/194/26 192/195/25
f 197/196/37 190/197/37 191/193/43 198/192/43
f 196/198/38 189/199/38 190/197/37 197/196/37
f 195/200/39 188/201/39 189/199/38 196/198/38
f 194/202/40 187/203/41 188/201/39 195/200/39
f 193/204/33 186/205/33 187/203/41 194/202/40
f 193/204/33 200/206/35 199/207/35 186/205/33
f 199/207/35 203/208/35 201/209/33 186/205/33
f 186/205/33 201/209/33 202/210/34 187/203/41
f 203/208/35 206/191/35 204/190/33 201/209/33
f 201/209/33 204/190/33 205/189/34 202/210/34
