# Blender v2.93.0 OBJ File: ''
# www.blender.org
mtllib smooth-grid.mtl
o Plane.001
v 0.005578 0.504511 -0.088217
v 1.004384 0.541222 -0.120450
v 0.994422 0.995489 0.088217
v -0.004384 0.958778 0.120450
v 0.000000 -1.000000 0.000000
v 1.000000 -1.000000 0.000000
v 1.000000 0.000000 0.000000
v 0.000000 0.000000 0.000000
v -0.602262 -1.037464 0.174118
v -0.587913 -0.080352 -0.115242
v -0.513090 0.439305 0.081721
v -0.627035 0.893265 0.257610
v -0.897738 0.037465 0.259094
v -0.966348 0.274454 0.213561
v -1.080293 0.728414 0.389450
v -0.912087 -0.919648 0.548454
vt 0.500000 0.750000
vt 0.500000 1.000000
vt 1.000000 1.000000
vt 1.000000 0.750000
vt 0.500000 0.000000
vt 0.500000 0.500000
vt 1.000000 0.500000
vt 1.000000 0.000000
vt 0.250000 0.000000
vt 0.250000 0.500000
vt 0.250000 0.750000
vt 0.250000 1.000000
vt 0.000000 0.500000
vt 0.000000 0.750000
vt 0.000000 1.000000
vt 0.000000 0.000000
vn -0.0400 0.2253 -0.9735
vn -0.1188 0.3740 -0.9198
vn -0.0268 0.3647 -0.9307
vn 0.0862 0.1500 -0.9849
vn -0.1023 -0.0920 -0.9905
vn -0.0446 -0.0405 -0.9982
vn 0.0341 -0.0481 -0.9983
vn 0.0003 -0.0276 -0.9996
vn -0.4771 -0.2824 -0.8322
vn -0.5162 -0.0931 -0.8514
vn -0.2820 0.1802 -0.9423
vn -0.2841 0.3009 -0.9104
vn -0.6051 0.0321 -0.7955
vn -0.4664 0.2236 -0.8558
vn -0.3544 0.2579 -0.8988
vn -0.7150 -0.1635 -0.6797
usemtl None.001
s 1
f 1/1/1 4/2/2 3/3/3 2/4/4
f 5/5/5 8/6/6 7/7/7 6/8/8
f 9/9/9 10/10/10 8/6/6 5/5/5
f 11/11/11 12/12/12 4/2/2 1/1/1
f 10/10/10 11/11/11 1/1/1 8/6/6
f 8/6/6 1/1/1 2/4/4 7/7/7
f 13/13/13 14/14/14 11/11/11 10/10/10
f 14/14/14 15/15/15 12/12/12 11/11/11
f 16/16/16 13/13/13 10/10/10 9/9/9
