# Blender v2.93.0 OBJ File: ''
# www.blender.org
mtllib test2.mtl
o Plane
v -0.912087 -0.919648 0.548454
v 1.000000 -1.000000 0.000000
v -1.080293 0.728414 0.389450
v 0.994422 0.995489 0.088217
v -0.897738 0.037465 0.259094
v 1.000000 0.000000 0.000000
v 0.000000 -1.000000 0.000000
v -0.004384 0.958778 0.120450
v 0.000000 0.000000 0.000000
v 1.004384 0.541222 -0.120450
v -0.966348 0.274454 0.213561
v 0.005578 0.504511 -0.088217
v -0.627035 0.893265 0.257610
v -0.587913 -0.080352 -0.115242
v -0.602262 -1.037464 0.174118
v -0.513090 0.439305 0.081721
vt 0.500000 0.750000
vt 1.000000 0.750000
vt 1.000000 1.000000
vt 0.500000 1.000000
vt 0.500000 0.000000
vt 1.000000 0.000000
vt 1.000000 0.500000
vt 0.500000 0.500000
vt 0.250000 0.000000
vt 0.250000 0.500000
vt 0.250000 0.750000
vt 0.250000 1.000000
vt 0.000000 0.500000
vt 0.000000 0.750000
vt 0.000000 1.000000
vt 0.000000 0.000000
vn 0.0446 -0.4162 0.9082
vn 0.0000 0.0000 1.0000
vn 0.0345 0.1459 0.9887
vn 0.2805 -0.3416 0.8970
vn 0.0635 -0.1103 0.9919
vn 0.0122 0.1956 0.9806
vn 0.5521 -0.1680 0.8167
vn 0.3554 -0.2588 0.8982
vn 0.7847 0.1686 0.5965
usemtl None
s off
f 12/1/1 10/2/1 4/3/1 8/4/1
f 7/5/2 2/6/2 6/7/2 9/8/2
f 15/9/3 7/5/3 9/8/3 14/10/3
f 16/11/4 12/1/4 8/4/4 13/12/4
f 14/10/5 9/8/5 12/1/5 16/11/5
f 9/8/6 6/7/6 10/2/6 12/1/6
f 5/13/7 14/10/7 16/11/7 11/14/7
f 11/14/8 16/11/8 13/12/8 3/15/8
f 1/16/9 15/9/9 14/10/9 5/13/9
