# Blender v2.93.0 OBJ File: ''
# www.blender.org
mtllib singular-grid.mtl
o Plane
v -1.000028 -0.999991 0.224682
v 0.969100 -0.325377 0.173639
v -0.771706 0.895001 0.209023
v -0.203065 1.590943 -0.012720
v -1.015597 0.005252 0.352442
v 0.407969 0.530990 0.286149
v -0.015666 -0.994725 0.311958
v 1.662755 0.323605 -0.051130
v -0.297149 -0.128774 0.519664
v 1.014385 1.214211 -0.020570
v -0.685063 -1.886412 0.019972
v 1.332613 -1.228146 -0.006511
v 0.314937 -1.886412 0.013729
v 2.078877 -0.560704 -0.073147
v -1.781411 -0.879122 0.109638
v -1.521752 1.005318 0.088400
v -1.020668 1.864466 -0.008960
v -1.781411 0.120878 0.145875
v -1.577506 -1.899918 0.044374
vt 0.000000 1.000000
vt 0.500000 1.000000
vt 0.500000 1.000000
vt 0.000000 1.000000
vt 0.500000 0.000000
vt 1.000000 0.000000
vt 1.000000 0.500000
vt 0.500000 0.500000
vt 0.000000 0.000000
vt 0.000000 0.500000
vt 1.000000 0.000000
vt 1.000000 0.500000
vt 1.000000 0.000000
vt 1.000000 0.000000
vt 0.000000 0.000000
vt 0.500000 0.000000
vt 0.000000 0.500000
vt 0.000000 0.000000
vt 0.000000 0.000000
vt 0.000000 1.000000
vt 0.000000 1.000000
vn 0.0673 0.3065 0.9495
vn 0.2553 -0.0546 0.9653
vn -0.1595 -0.1987 0.9670
vn -0.0538 0.2670 0.9622
vn 0.2752 0.1123 0.9548
vn 0.2135 -0.0173 0.9768
vn -0.0384 -0.2848 0.9578
vn 0.1963 -0.1810 0.9637
vn -0.2147 -0.0813 0.9733
vn -0.0634 -0.1568 0.9856
vn -0.1850 0.1623 0.9692
vn -0.0203 0.2144 0.9765
usemtl None
s off
f 3/1/1 6/2/1 10/3/1 4/4/1
f 7/5/2 2/6/2 6/7/2 9/8/2
f 1/9/3 7/5/3 9/8/3 5/10/3
f 5/10/4 9/8/4 6/2/4 3/1/4
f 6/7/5 2/6/5 8/11/5 10/12/5
f 8/11/6 2/6/6 12/13/6 14/14/6
f 7/5/7 1/9/7 11/15/7 13/16/7
f 2/6/8 7/5/8 13/16/8 12/13/8
f 1/9/9 5/10/9 18/17/9 15/18/9
f 11/15/10 1/9/10 15/18/10 19/19/10
f 5/10/11 3/1/11 16/20/11 18/17/11
f 3/1/12 4/4/12 17/21/12 16/20/12
