# Blender v2.93.4 OBJ File: ''
# www.blender.org
v 0.707107 -0.565942 -0.872600
v 0.707107 0.565942 -0.872600
v 0.923880 -0.740732 -0.599289
v 0.923880 0.740732 -0.599289
v 1.000000 -0.946911 -0.276896
v 1.000000 0.946911 -0.276896
v 0.923880 -1.153089 0.045496
v 0.923880 1.153089 0.045496
v 0.707107 -1.327879 0.318808
v 0.707107 1.327879 0.318808
v 0.382683 -1.444670 0.501428
v 0.382683 1.444670 0.501428
v -0.000000 -1.485682 0.565556
v -0.000000 1.485682 0.565556
v -0.382683 -1.444670 0.501428
v -0.382683 1.444670 0.501428
v -0.707107 -1.327879 0.318808
v -0.707107 1.327879 0.318808
v -0.923880 -1.153090 0.045497
v -0.923880 1.153090 0.045497
v -1.000000 -0.946911 -0.276896
v -1.000000 0.946911 -0.276896
v -0.923879 -0.740732 -0.599289
v -0.923879 0.740732 -0.599289
v -0.707107 -0.565942 -0.872600
v -0.707107 0.565942 -0.872600
v 0.707107 0.351678 -0.767726
v 0.707107 0.119277 -0.713901
v 0.707107 -0.119277 -0.713901
v 0.707107 -0.351678 -0.767726
v 0.923880 0.460293 -0.462024
v 0.923880 0.156115 -0.391576
v 0.923880 -0.156115 -0.391576
v 0.923880 -0.460293 -0.462024
v 1.000000 0.588413 -0.101425
v 1.000000 0.199569 -0.011367
v 1.000000 -0.199569 -0.011367
v 1.000000 -0.588413 -0.101425
v 0.923880 0.716533 0.259174
v 0.923880 0.243022 0.368841
v 0.923880 -0.243022 0.368841
v 0.923880 -0.716533 0.259174
v 0.707107 0.825148 0.564875
v 0.707107 0.279861 0.691166
v 0.707107 -0.279861 0.691166
v 0.707107 -0.825148 0.564875
v 0.382683 0.897722 0.769139
v 0.382683 0.304475 0.906537
v 0.382683 -0.304475 0.906537
v 0.382683 -0.897722 0.769139
v -0.000000 0.923207 0.840866
v -0.000000 0.313119 0.982165
v -0.000000 -0.313119 0.982165
v -0.000000 -0.923207 0.840866
v -0.382683 0.897722 0.769139
v -0.382683 0.304475 0.906537
v -0.382683 -0.304475 0.906537
v -0.382683 -0.897722 0.769139
v -0.707107 0.825148 0.564875
v -0.707107 0.279861 0.691166
v -0.707107 -0.279861 0.691166
v -0.707107 -0.825148 0.564875
v -0.923880 0.716533 0.259174
v -0.923880 0.243022 0.368841
v -0.923880 -0.243022 0.368841
v -0.923880 -0.716533 0.259174
v -1.000000 0.588413 -0.101425
v -1.000000 0.199569 -0.011367
v -1.000000 -0.199569 -0.011367
v -1.000000 -0.588413 -0.101425
v -0.923879 0.460293 -0.462025
v -0.923879 0.156115 -0.391576
v -0.923879 -0.156115 -0.391576
v -0.923879 -0.460293 -0.462025
v -0.707107 0.351678 -0.767726
v -0.707107 0.119277 -0.713901
v -0.707107 -0.119277 -0.713901
v -0.707107 -0.351678 -0.767726
vn 0.8314 -0.1860 -0.5235
vn 0.8298 -0.2453 -0.5012
vn 0.9280 -0.1638 -0.3346
vn 0.9288 -0.1240 -0.3491
vn 0.9999 0.0062 0.0128
vn 0.9999 0.0047 0.0133
vn 0.9179 0.1744 0.3564
vn 0.9188 0.1321 0.3718
vn 0.6978 0.3149 0.6434
vn 0.7001 0.2391 0.6728
vn 0.3757 0.4074 0.8324
vn 0.3778 0.3100 0.8724
vn 0.0000 0.4396 0.8982
vn 0.0000 0.3348 0.9423
vn -0.3757 0.4074 0.8324
vn -0.3778 0.3100 0.8724
vn -0.6978 0.3149 0.6434
vn -0.7001 0.2391 0.6728
vn -0.9179 0.1744 0.3564
vn -0.9188 0.1321 0.3718
vn -0.9999 0.0062 0.0128
vn -0.9999 0.0047 0.0133
vn -0.9280 -0.1638 -0.3346
vn -0.9288 -0.1240 -0.3491
vn -0.8298 -0.2453 -0.5012
vn -0.8314 -0.1860 -0.5235
vn -0.9280 0.1638 -0.3346
vn -0.9288 0.1240 -0.3491
vn -0.8314 0.1860 -0.5235
vn -0.8298 0.2453 -0.5012
vn -0.9288 0.0421 -0.3681
vn -0.8314 0.0631 -0.5520
vn -0.9288 -0.0421 -0.3681
vn -0.8314 -0.0631 -0.5520
vn -0.9999 -0.0062 0.0128
vn -0.9999 -0.0047 0.0133
vn -0.9999 -0.0016 0.0140
vn -0.9999 0.0016 0.0140
vn -0.9179 -0.1744 0.3564
vn -0.9188 -0.1321 0.3718
vn -0.9188 -0.0448 0.3920
vn -0.9188 0.0448 0.3920
vn -0.6978 -0.3149 0.6434
vn -0.7001 -0.2391 0.6728
vn -0.7001 -0.0811 0.7094
vn -0.7001 0.0811 0.7094
vn -0.3757 -0.4074 0.8324
vn -0.3778 -0.3100 0.8724
vn -0.3778 -0.1051 0.9199
vn -0.3778 0.1051 0.9199
vn 0.0000 -0.4396 0.8982
vn 0.0000 -0.3348 0.9423
vn 0.0000 -0.1135 0.9935
vn 0.0000 0.1135 0.9935
vn 0.3757 -0.4074 0.8324
vn 0.3778 -0.3100 0.8724
vn 0.3778 -0.1051 0.9199
vn 0.3778 0.1051 0.9199
vn 0.6978 -0.3149 0.6434
vn 0.7001 -0.2391 0.6728
vn 0.7001 -0.0811 0.7094
vn 0.7001 0.0811 0.7094
vn 0.9179 -0.1744 0.3564
vn 0.9188 -0.1321 0.3718
vn 0.9188 -0.0448 0.3920
vn 0.9188 0.0448 0.3920
vn 0.9999 -0.0062 0.0128
vn 0.9999 -0.0047 0.0133
vn 0.9999 -0.0016 0.0140
vn 0.9999 0.0016 0.0140
vn 0.9280 0.1638 -0.3346
vn 0.9288 0.1240 -0.3491
vn 0.9288 0.0421 -0.3681
vn 0.9288 -0.0421 -0.3681
vn 0.8298 0.2453 -0.5012
vn 0.8314 0.1860 -0.5235
vn 0.8314 0.0631 -0.5520
vn 0.8314 -0.0631 -0.5520
s 1
f 27//1 2//2 4//3 31//4
f 31//4 4//3 6//5 35//6
f 35//6 6//5 8//7 39//8
f 39//8 8//7 10//9 43//10
f 43//10 10//9 12//11 47//12
f 47//12 12//11 14//13 51//14
f 51//14 14//13 16//15 55//16
f 55//16 16//15 18//17 59//18
f 59//18 18//17 20//19 63//20
f 63//20 20//19 22//21 67//22
f 67//22 22//21 24//23 71//24
f 71//24 24//23 26//25 75//26
f 23//27 74//28 78//29 25//30
f 74//28 73//31 77//32 78//29
f 73//31 72//33 76//34 77//32
f 72//33 71//24 75//26 76//34
f 21//35 70//36 74//28 23//27
f 70//36 69//37 73//31 74//28
f 69//37 68//38 72//33 73//31
f 68//38 67//22 71//24 72//33
f 19//39 66//40 70//36 21//35
f 66//40 65//41 69//37 70//36
f 65//41 64//42 68//38 69//37
f 64//42 63//20 67//22 68//38
f 17//43 62//44 66//40 19//39
f 62//44 61//45 65//41 66//40
f 61//45 60//46 64//42 65//41
f 60//46 59//18 63//20 64//42
f 15//47 58//48 62//44 17//43
f 58//48 57//49 61//45 62//44
f 57//49 56//50 60//46 61//45
f 56//50 55//16 59//18 60//46
f 13//51 54//52 58//48 15//47
f 54//52 53//53 57//49 58//48
f 53//53 52//54 56//50 57//49
f 52//54 51//14 55//16 56//50
f 11//55 50//56 54//52 13//51
f 50//56 49//57 53//53 54//52
f 49//57 48//58 52//54 53//53
f 48//58 47//12 51//14 52//54
f 9//59 46//60 50//56 11//55
f 46//60 45//61 49//57 50//56
f 45//61 44//62 48//58 49//57
f 44//62 43//10 47//12 48//58
f 7//63 42//64 46//60 9//59
f 42//64 41//65 45//61 46//60
f 41//65 40//66 44//62 45//61
f 40//66 39//8 43//10 44//62
f 5//67 38//68 42//64 7//63
f 38//68 37//69 41//65 42//64
f 37//69 36//70 40//66 41//65
f 36//70 35//6 39//8 40//66
f 3//71 34//72 38//68 5//67
f 34//72 33//73 37//69 38//68
f 33//73 32//74 36//70 37//69
f 32//74 31//4 35//6 36//70
f 1//75 30//76 34//72 3//71
f 30//76 29//77 33//73 34//72
f 29//77 28//78 32//74 33//73
f 28//78 27//1 31//4 32//74
