# Blender v3.3.0 OBJ File: ''
# www.blender.org
o Plane
v -1.500000 0.000000 -1.500000
v -0.500000 0.000000 -0.500000
v 0.500000 0.000000 -0.500000
v -0.500000 0.000000 -1.500000
v 1.500000 0.000000 -0.500000
v 0.500000 0.000000 -1.500000
v 1.500000 0.000000 -1.500000
v -0.500000 0.000000 0.500000
v -1.500000 0.000000 -0.500000
v 1.500000 0.000000 0.500000
v -1.500000 0.000000 1.500000
v -0.500000 0.000000 1.500000
v -1.500000 0.000000 0.500000
v 0.500000 0.000000 0.500000
v 0.500000 0.000000 1.500000
v 1.500000 0.000000 1.500000
vt 0.000000 0.000000
vt 1.000000 0.000000
vt 1.000000 1.000000
vt 0.000000 1.000000
vt 0.000000 0.000000
vt 1.000000 0.000000
vt 1.000000 1.000000
vt 0.000000 1.000000
vt 0.000000 0.000000
vt 1.000000 0.000000
vt 1.000000 1.000000
vt 0.000000 1.000000
vt 0.000000 0.000000
vt 1.000000 0.000000
vt 1.000000 1.000000
vt 0.000000 1.000000
vt 0.000000 0.000000
vt 1.000000 0.000000
vt 1.000000 1.000000
vt 0.000000 1.000000
vt 0.000000 0.000000
vt 1.000000 0.000000
vt 1.000000 1.000000
vt 0.000000 1.000000
vt 0.000000 0.000000
vt 1.000000 0.000000
vt 1.000000 1.000000
vt 0.000000 1.000000
vt 0.000000 0.000000
vt 1.000000 0.000000
vt 1.000000 1.000000
vt 0.000000 1.000000
vt 0.000000 0.000000
vt 1.000000 0.000000
vt 1.000000 1.000000
vt 0.000000 1.000000
vn 0.0000 1.0000 0.0000
s off
f 9/1/1 2/2/1 4/3/1 1/4/1
f 2/5/1 3/6/1 6/7/1 4/8/1
f 3/9/1 5/10/1 7/11/1 6/12/1
f 13/13/1 8/14/1 2/15/1 9/16/1
f 8/17/1 14/18/1 3/19/1 2/20/1
f 14/21/1 10/22/1 5/23/1 3/24/1
f 11/25/1 12/26/1 8/27/1 13/28/1
f 12/29/1 15/30/1 14/31/1 8/32/1
f 15/33/1 16/34/1 10/35/1 14/36/1
